<?xml version="1.0" standalone="no"?>
<!DOCTYPE svg PUBLIC "-//W3C//DTD SVG 20010904//EN"
 "http://www.w3.org/TR/2001/REC-SVG-20010904/DTD/svg10.dtd">
<svg version="1.0" xmlns="http://www.w3.org/2000/svg"
 width="505.000000pt" height="429.000000pt" viewBox="0 0 505.000000 429.000000"
 preserveAspectRatio="xMidYMid meet">

<g transform="translate(0.000000,429.000000) scale(0.100000,-0.100000)"
fill="#000000" stroke="none">
<path d="M151 4211 c-26 -24 -31 -37 -31 -74 0 -38 5 -49 31 -71 l31 -26 343
0 343 0 5 -22 c3 -13 128 -599 277 -1303 149 -704 277 -1299 286 -1322 8 -23
29 -54 45 -68 l31 -25 1329 0 c1470 0 1383 -4 1415 63 20 41 14 75 -20 114
l-24 28 -1295 3 -1295 2 -6 23 c-3 13 -21 97 -41 188 -19 90 -37 174 -40 187
l-5 22 1425 0 c1568 0 1477 -4 1507 61 21 46 378 1578 378 1623 0 25 -8 45
-29 68 l-29 33 -1816 3 c-999 1 -1816 5 -1816 9 0 22 -92 436 -102 458 -24 54
-33 55 -466 55 l-400 0 -31 -29z m2119 -991 l0 -290 -475 0 -475 0 -5 23 c-28
124 -115 538 -115 549 0 5 241 8 535 8 l535 0 0 -290z m1050 0 l0 -290 -420 0
-420 0 0 290 0 290 420 0 420 0 0 -290z m1286 273 c-2 -10 -33 -141 -68 -290
l-63 -273 -472 0 -473 0 0 290 0 290 541 0 c510 0 540 -1 535 -17z m-2336
-1063 l0 -290 -392 2 -392 3 -57 270 c-32 149 -58 278 -59 288 0 16 28 17 450
17 l450 0 0 -290z m1050 0 l0 -290 -420 0 -420 0 0 290 0 290 420 0 420 0 0
-290z m1100 279 c0 -10 -114 -510 -126 -551 -5 -17 -32 -18 -385 -18 l-379 0
0 290 0 290 445 0 c322 0 445 -3 445 -11z"/>
<path d="M1992 971 c-68 -18 -162 -74 -216 -131 -277 -291 -97 -766 303 -797
190 -14 370 90 458 265 38 77 38 77 38 202 0 124 0 126 -37 203 -50 103 -122
176 -225 225 -73 34 -85 37 -183 39 -58 1 -120 -2 -138 -6z m253 -233 c84 -54
117 -110 123 -210 4 -69 2 -84 -22 -132 -59 -121 -200 -175 -328 -126 -133 50
-205 213 -148 338 31 68 68 109 123 137 46 24 61 26 132 23 65 -4 88 -9 120
-30z"/>
<path d="M3454 966 c-247 -80 -390 -324 -329 -561 36 -138 123 -249 244 -310
189 -94 389 -64 542 81 133 128 179 315 118 491 -42 123 -123 211 -249 272
-70 33 -83 36 -180 38 -67 2 -120 -2 -146 -11z m260 -226 c19 -11 50 -38 69
-59 122 -135 54 -362 -127 -421 -79 -26 -190 4 -259 68 -114 107 -89 320 47
405 78 49 198 52 270 7z"/>
</g>
</svg>
