<?xml version="1.0" standalone="no"?>
<!DOCTYPE svg PUBLIC "-//W3C//DTD SVG 20010904//EN"
 "http://www.w3.org/TR/2001/REC-SVG-20010904/DTD/svg10.dtd">
<svg version="1.0" xmlns="http://www.w3.org/2000/svg"
 width="365.000000pt" height="365.000000pt" viewBox="0 0 365.000000 365.000000"
 preserveAspectRatio="xMidYMid meet">

<g transform="translate(0.000000,365.000000) scale(0.100000,-0.100000)"
fill="#000000" stroke="none">
<path d="M30 1825 l0 -1785 845 0 845 0 0 1785 0 1785 -845 0 -845 0 0 -1785z
m1570 5 l0 -1670 -725 0 -725 0 0 1670 0 1670 725 0 725 0 0 -1670z"/>
<path d="M1920 1825 l0 -1785 845 0 845 0 0 1785 0 1785 -845 0 -845 0 0
-1785z m1570 5 l0 -1670 -725 0 -725 0 0 1670 0 1670 725 0 725 0 0 -1670z"/>
</g>
</svg>
