<?xml version="1.0" standalone="no"?>
<!DOCTYPE svg PUBLIC "-//W3C//DTD SVG 20010904//EN"
 "http://www.w3.org/TR/2001/REC-SVG-20010904/DTD/svg10.dtd">
<svg version="1.0" xmlns="http://www.w3.org/2000/svg"
 width="473.000000pt" height="463.000000pt" viewBox="0 0 473.000000 463.000000"
 preserveAspectRatio="xMidYMid meet">

<g transform="translate(0.000000,463.000000) scale(0.100000,-0.100000)"
fill="#000000" stroke="none">
<path d="M352 4609 c-125 -21 -221 -107 -256 -231 -15 -49 -16 -136 -14 -769
l3 -714 25 -48 c30 -59 96 -121 158 -150 47 -22 49 -22 807 -22 l760 0 51 27
c62 33 118 89 147 148 l22 45 0 745 0 745 -25 49 c-32 63 -106 129 -178 158
l-57 23 -695 2 c-382 0 -719 -3 -748 -8z m1386 -966 l-3 -648 -662 -3 -663 -2
0 650 0 650 665 0 665 0 -2 -647z"/>
<path d="M3000 4614 c-140 -22 -246 -110 -279 -234 -17 -64 -11 -1459 7 -1510
20 -58 83 -131 142 -164 l55 -31 741 -3 c739 -2 742 -2 800 19 73 27 135 85
165 152 l24 52 0 740 0 740 -26 55 c-50 108 -121 162 -236 180 -54 9 -1336 12
-1393 4z m1330 -974 l0 -650 -645 0 -645 0 0 650 0 650 645 0 645 0 0 -650z"/>
<path d="M347 2009 c-90 -21 -176 -86 -224 -169 -43 -72 -44 -110 -41 -850 l3
-705 26 -55 c31 -66 90 -127 155 -160 l49 -25 750 0 750 0 57 27 c75 35 141
104 168 174 20 55 20 67 18 788 l-3 731 -28 57 c-35 72 -97 134 -167 167 l-55
26 -710 2 c-393 1 -727 -3 -748 -8z m1391 -981 l-3 -663 -662 -3 -663 -2 0
665 0 665 665 0 665 0 -2 -662z"/>
<path d="M2953 2005 c-100 -27 -164 -84 -212 -185 l-26 -55 -3 -719 c-2 -633
-1 -726 13 -774 28 -95 80 -160 165 -204 l45 -23 750 0 750 0 46 23 c64 31
117 85 148 151 l26 56 3 710 c3 741 2 776 -40 858 -29 57 -86 115 -142 145
l-51 27 -710 2 c-588 2 -719 0 -762 -12z m1377 -980 l0 -665 -645 0 -645 0 0
665 0 665 645 0 645 0 0 -665z"/>
</g>
</svg>
